<mxfile host="processflow.sharehoo.cn" modified="2021-04-20T10:17:22.069Z" agent="5.0 (Windows NT 10.0; Win64; x64) AppleWebKit/537.36 (KHTML, like Gecko) Chrome/89.0.4389.128 Safari/537.36 Edg/89.0.774.77" etag="tv6d1DI60FTa30Jng7Pm" version="14.3.2" type="github">
  <diagram id="rxUk0sLMFBgQ6sblAjXB" name="第 1 页">
    <mxGraphModel dx="1422" dy="762" grid="1" gridSize="10" guides="1" tooltips="1" connect="1" arrows="1" fold="1" page="1" pageScale="1" pageWidth="827" pageHeight="1169" math="0" shadow="0">
      <root>
        <mxCell id="0" />
        <mxCell id="1" parent="0" />
        <mxCell id="6DYlb84gElAy-nNqO098-1" value="" style="shape=table;html=1;whiteSpace=wrap;startSize=0;container=1;collapsible=0;childLayout=tableLayout;aspect=fixed;" vertex="1" parent="1">
          <mxGeometry x="340" y="480" width="280" height="280" as="geometry" />
        </mxCell>
        <mxCell id="6DYlb84gElAy-nNqO098-2" style="shape=partialRectangle;html=1;whiteSpace=wrap;collapsible=0;dropTarget=0;pointerEvents=0;fillColor=none;top=0;left=0;bottom=0;right=0;points=[[0,0.5],[1,0.5]];portConstraint=eastwest;" vertex="1" parent="6DYlb84gElAy-nNqO098-1">
          <mxGeometry width="280" height="40" as="geometry" />
        </mxCell>
        <mxCell id="6DYlb84gElAy-nNqO098-3" style="shape=partialRectangle;html=1;whiteSpace=wrap;connectable=0;fillColor=#1ba1e2;top=0;left=0;bottom=0;right=0;overflow=hidden;strokeColor=#006EAF;fontColor=#ffffff;" vertex="1" parent="6DYlb84gElAy-nNqO098-2">
          <mxGeometry width="40" height="40" as="geometry" />
        </mxCell>
        <mxCell id="6DYlb84gElAy-nNqO098-4" style="shape=partialRectangle;html=1;whiteSpace=wrap;connectable=0;fillColor=#1ba1e2;top=0;left=0;bottom=0;right=0;overflow=hidden;strokeColor=#006EAF;fontColor=#ffffff;" vertex="1" parent="6DYlb84gElAy-nNqO098-2">
          <mxGeometry x="40" width="40" height="40" as="geometry" />
        </mxCell>
        <mxCell id="6DYlb84gElAy-nNqO098-5" style="shape=partialRectangle;html=1;whiteSpace=wrap;connectable=0;fillColor=#1ba1e2;top=0;left=0;bottom=0;right=0;overflow=hidden;strokeColor=#006EAF;fontColor=#ffffff;" vertex="1" parent="6DYlb84gElAy-nNqO098-2">
          <mxGeometry x="80" width="40" height="40" as="geometry" />
        </mxCell>
        <mxCell id="6DYlb84gElAy-nNqO098-6" style="shape=partialRectangle;html=1;whiteSpace=wrap;connectable=0;fillColor=#1ba1e2;top=0;left=0;bottom=0;right=0;overflow=hidden;strokeColor=#006EAF;fontColor=#ffffff;" vertex="1" parent="6DYlb84gElAy-nNqO098-2">
          <mxGeometry x="120" width="40" height="40" as="geometry" />
        </mxCell>
        <mxCell id="6DYlb84gElAy-nNqO098-7" style="shape=partialRectangle;html=1;whiteSpace=wrap;connectable=0;fillColor=#1ba1e2;top=0;left=0;bottom=0;right=0;overflow=hidden;strokeColor=#006EAF;fontColor=#ffffff;" vertex="1" parent="6DYlb84gElAy-nNqO098-2">
          <mxGeometry x="160" width="40" height="40" as="geometry" />
        </mxCell>
        <mxCell id="6DYlb84gElAy-nNqO098-8" style="shape=partialRectangle;html=1;whiteSpace=wrap;connectable=0;fillColor=#1ba1e2;top=0;left=0;bottom=0;right=0;overflow=hidden;strokeColor=#006EAF;fontColor=#ffffff;" vertex="1" parent="6DYlb84gElAy-nNqO098-2">
          <mxGeometry x="200" width="40" height="40" as="geometry" />
        </mxCell>
        <mxCell id="6DYlb84gElAy-nNqO098-9" style="shape=partialRectangle;html=1;whiteSpace=wrap;connectable=0;fillColor=#1ba1e2;top=0;left=0;bottom=0;right=0;overflow=hidden;strokeColor=#006EAF;fontColor=#ffffff;" vertex="1" parent="6DYlb84gElAy-nNqO098-2">
          <mxGeometry x="240" width="40" height="40" as="geometry" />
        </mxCell>
        <mxCell id="6DYlb84gElAy-nNqO098-10" style="shape=partialRectangle;html=1;whiteSpace=wrap;collapsible=0;dropTarget=0;pointerEvents=0;fillColor=none;top=0;left=0;bottom=0;right=0;points=[[0,0.5],[1,0.5]];portConstraint=eastwest;" vertex="1" parent="6DYlb84gElAy-nNqO098-1">
          <mxGeometry y="40" width="280" height="40" as="geometry" />
        </mxCell>
        <mxCell id="6DYlb84gElAy-nNqO098-11" style="shape=partialRectangle;html=1;whiteSpace=wrap;connectable=0;fillColor=#1ba1e2;top=0;left=0;bottom=0;right=0;overflow=hidden;strokeColor=#006EAF;fontColor=#ffffff;" vertex="1" parent="6DYlb84gElAy-nNqO098-10">
          <mxGeometry width="40" height="40" as="geometry" />
        </mxCell>
        <mxCell id="6DYlb84gElAy-nNqO098-12" style="shape=partialRectangle;html=1;whiteSpace=wrap;connectable=0;top=0;left=0;bottom=0;right=0;overflow=hidden;fillColor=#a20025;strokeColor=#6F0000;fontColor=#ffffff;" vertex="1" parent="6DYlb84gElAy-nNqO098-10">
          <mxGeometry x="40" width="40" height="40" as="geometry" />
        </mxCell>
        <mxCell id="6DYlb84gElAy-nNqO098-13" style="shape=partialRectangle;html=1;whiteSpace=wrap;connectable=0;top=0;left=0;bottom=0;right=0;overflow=hidden;fillColor=#a20025;strokeColor=#6F0000;fontColor=#ffffff;" vertex="1" parent="6DYlb84gElAy-nNqO098-10">
          <mxGeometry x="80" width="40" height="40" as="geometry" />
        </mxCell>
        <mxCell id="6DYlb84gElAy-nNqO098-14" style="shape=partialRectangle;html=1;whiteSpace=wrap;connectable=0;top=0;left=0;bottom=0;right=0;overflow=hidden;fillColor=#a20025;strokeColor=#6F0000;fontColor=#ffffff;" vertex="1" parent="6DYlb84gElAy-nNqO098-10">
          <mxGeometry x="120" width="40" height="40" as="geometry" />
        </mxCell>
        <mxCell id="6DYlb84gElAy-nNqO098-15" style="shape=partialRectangle;html=1;whiteSpace=wrap;connectable=0;top=0;left=0;bottom=0;right=0;overflow=hidden;fillColor=#a20025;strokeColor=#6F0000;fontColor=#ffffff;" vertex="1" parent="6DYlb84gElAy-nNqO098-10">
          <mxGeometry x="160" width="40" height="40" as="geometry" />
        </mxCell>
        <mxCell id="6DYlb84gElAy-nNqO098-16" style="shape=partialRectangle;html=1;whiteSpace=wrap;connectable=0;top=0;left=0;bottom=0;right=0;overflow=hidden;fillColor=#a20025;strokeColor=#6F0000;fontColor=#ffffff;" vertex="1" parent="6DYlb84gElAy-nNqO098-10">
          <mxGeometry x="200" width="40" height="40" as="geometry" />
        </mxCell>
        <mxCell id="6DYlb84gElAy-nNqO098-17" style="shape=partialRectangle;html=1;whiteSpace=wrap;connectable=0;fillColor=#1ba1e2;top=0;left=0;bottom=0;right=0;overflow=hidden;strokeColor=#006EAF;fontColor=#ffffff;" vertex="1" parent="6DYlb84gElAy-nNqO098-10">
          <mxGeometry x="240" width="40" height="40" as="geometry" />
        </mxCell>
        <mxCell id="6DYlb84gElAy-nNqO098-18" style="shape=partialRectangle;html=1;whiteSpace=wrap;collapsible=0;dropTarget=0;pointerEvents=0;fillColor=none;top=0;left=0;bottom=0;right=0;points=[[0,0.5],[1,0.5]];portConstraint=eastwest;" vertex="1" parent="6DYlb84gElAy-nNqO098-1">
          <mxGeometry y="80" width="280" height="40" as="geometry" />
        </mxCell>
        <mxCell id="6DYlb84gElAy-nNqO098-19" style="shape=partialRectangle;html=1;whiteSpace=wrap;connectable=0;fillColor=#1ba1e2;top=0;left=0;bottom=0;right=0;overflow=hidden;strokeColor=#006EAF;fontColor=#ffffff;" vertex="1" parent="6DYlb84gElAy-nNqO098-18">
          <mxGeometry width="40" height="40" as="geometry" />
        </mxCell>
        <mxCell id="6DYlb84gElAy-nNqO098-20" style="shape=partialRectangle;html=1;whiteSpace=wrap;connectable=0;top=0;left=0;bottom=0;right=0;overflow=hidden;" vertex="1" parent="6DYlb84gElAy-nNqO098-18">
          <mxGeometry x="40" width="40" height="40" as="geometry" />
        </mxCell>
        <mxCell id="6DYlb84gElAy-nNqO098-21" style="shape=partialRectangle;html=1;whiteSpace=wrap;connectable=0;fillColor=#1ba1e2;top=0;left=0;bottom=0;right=0;overflow=hidden;strokeColor=#006EAF;fontColor=#ffffff;" vertex="1" parent="6DYlb84gElAy-nNqO098-18">
          <mxGeometry x="80" width="40" height="40" as="geometry" />
        </mxCell>
        <mxCell id="6DYlb84gElAy-nNqO098-22" style="shape=partialRectangle;html=1;whiteSpace=wrap;connectable=0;fillColor=none;top=0;left=0;bottom=0;right=0;overflow=hidden;" vertex="1" parent="6DYlb84gElAy-nNqO098-18">
          <mxGeometry x="120" width="40" height="40" as="geometry" />
        </mxCell>
        <mxCell id="6DYlb84gElAy-nNqO098-23" style="shape=partialRectangle;html=1;whiteSpace=wrap;connectable=0;fillColor=#1ba1e2;top=0;left=0;bottom=0;right=0;overflow=hidden;strokeColor=#006EAF;fontColor=#ffffff;" vertex="1" parent="6DYlb84gElAy-nNqO098-18">
          <mxGeometry x="160" width="40" height="40" as="geometry" />
        </mxCell>
        <mxCell id="6DYlb84gElAy-nNqO098-24" style="shape=partialRectangle;html=1;whiteSpace=wrap;connectable=0;top=0;left=0;bottom=0;right=0;overflow=hidden;fillColor=#a20025;strokeColor=#6F0000;fontColor=#ffffff;" vertex="1" parent="6DYlb84gElAy-nNqO098-18">
          <mxGeometry x="200" width="40" height="40" as="geometry" />
        </mxCell>
        <mxCell id="6DYlb84gElAy-nNqO098-25" style="shape=partialRectangle;html=1;whiteSpace=wrap;connectable=0;fillColor=#1ba1e2;top=0;left=0;bottom=0;right=0;overflow=hidden;strokeColor=#006EAF;fontColor=#ffffff;" vertex="1" parent="6DYlb84gElAy-nNqO098-18">
          <mxGeometry x="240" width="40" height="40" as="geometry" />
        </mxCell>
        <mxCell id="6DYlb84gElAy-nNqO098-26" style="shape=partialRectangle;html=1;whiteSpace=wrap;collapsible=0;dropTarget=0;pointerEvents=0;fillColor=none;top=0;left=0;bottom=0;right=0;points=[[0,0.5],[1,0.5]];portConstraint=eastwest;" vertex="1" parent="6DYlb84gElAy-nNqO098-1">
          <mxGeometry y="120" width="280" height="40" as="geometry" />
        </mxCell>
        <mxCell id="6DYlb84gElAy-nNqO098-27" style="shape=partialRectangle;html=1;whiteSpace=wrap;connectable=0;fillColor=#1ba1e2;top=0;left=0;bottom=0;right=0;overflow=hidden;strokeColor=#006EAF;fontColor=#ffffff;" vertex="1" parent="6DYlb84gElAy-nNqO098-26">
          <mxGeometry width="40" height="40" as="geometry" />
        </mxCell>
        <mxCell id="6DYlb84gElAy-nNqO098-28" style="shape=partialRectangle;html=1;whiteSpace=wrap;connectable=0;top=0;left=0;bottom=0;right=0;overflow=hidden;" vertex="1" parent="6DYlb84gElAy-nNqO098-26">
          <mxGeometry x="40" width="40" height="40" as="geometry" />
        </mxCell>
        <mxCell id="6DYlb84gElAy-nNqO098-29" style="shape=partialRectangle;html=1;whiteSpace=wrap;connectable=0;top=0;left=0;bottom=0;right=0;overflow=hidden;" vertex="1" parent="6DYlb84gElAy-nNqO098-26">
          <mxGeometry x="80" width="40" height="40" as="geometry" />
        </mxCell>
        <mxCell id="6DYlb84gElAy-nNqO098-30" style="shape=partialRectangle;html=1;whiteSpace=wrap;connectable=0;fillColor=#1ba1e2;top=0;left=0;bottom=0;right=0;overflow=hidden;strokeColor=#006EAF;fontColor=#ffffff;" vertex="1" parent="6DYlb84gElAy-nNqO098-26">
          <mxGeometry x="120" width="40" height="40" as="geometry" />
        </mxCell>
        <mxCell id="6DYlb84gElAy-nNqO098-31" style="shape=partialRectangle;html=1;whiteSpace=wrap;connectable=0;fillColor=none;top=0;left=0;bottom=0;right=0;overflow=hidden;" vertex="1" parent="6DYlb84gElAy-nNqO098-26">
          <mxGeometry x="160" width="40" height="40" as="geometry" />
        </mxCell>
        <mxCell id="6DYlb84gElAy-nNqO098-32" style="shape=partialRectangle;html=1;whiteSpace=wrap;connectable=0;fillColor=#1ba1e2;top=0;left=0;bottom=0;right=0;overflow=hidden;strokeColor=#006EAF;fontColor=#ffffff;" vertex="1" parent="6DYlb84gElAy-nNqO098-26">
          <mxGeometry x="200" width="40" height="40" as="geometry" />
        </mxCell>
        <mxCell id="6DYlb84gElAy-nNqO098-33" style="shape=partialRectangle;html=1;whiteSpace=wrap;connectable=0;fillColor=#1ba1e2;top=0;left=0;bottom=0;right=0;overflow=hidden;strokeColor=#006EAF;fontColor=#ffffff;" vertex="1" parent="6DYlb84gElAy-nNqO098-26">
          <mxGeometry x="240" width="40" height="40" as="geometry" />
        </mxCell>
        <mxCell id="6DYlb84gElAy-nNqO098-34" style="shape=partialRectangle;html=1;whiteSpace=wrap;collapsible=0;dropTarget=0;pointerEvents=0;fillColor=none;top=0;left=0;bottom=0;right=0;points=[[0,0.5],[1,0.5]];portConstraint=eastwest;" vertex="1" parent="6DYlb84gElAy-nNqO098-1">
          <mxGeometry y="160" width="280" height="40" as="geometry" />
        </mxCell>
        <mxCell id="6DYlb84gElAy-nNqO098-35" style="shape=partialRectangle;html=1;whiteSpace=wrap;connectable=0;fillColor=#1ba1e2;top=0;left=0;bottom=0;right=0;overflow=hidden;strokeColor=#006EAF;fontColor=#ffffff;" vertex="1" parent="6DYlb84gElAy-nNqO098-34">
          <mxGeometry width="40" height="40" as="geometry" />
        </mxCell>
        <mxCell id="6DYlb84gElAy-nNqO098-36" style="shape=partialRectangle;html=1;whiteSpace=wrap;connectable=0;fillColor=#1ba1e2;top=0;left=0;bottom=0;right=0;overflow=hidden;strokeColor=#006EAF;fontColor=#ffffff;" vertex="1" parent="6DYlb84gElAy-nNqO098-34">
          <mxGeometry x="40" width="40" height="40" as="geometry" />
        </mxCell>
        <mxCell id="6DYlb84gElAy-nNqO098-37" style="shape=partialRectangle;html=1;whiteSpace=wrap;connectable=0;top=0;left=0;bottom=0;right=0;overflow=hidden;" vertex="1" parent="6DYlb84gElAy-nNqO098-34">
          <mxGeometry x="80" width="40" height="40" as="geometry" />
        </mxCell>
        <mxCell id="6DYlb84gElAy-nNqO098-38" style="shape=partialRectangle;html=1;whiteSpace=wrap;connectable=0;fillColor=#1ba1e2;top=0;left=0;bottom=0;right=0;overflow=hidden;strokeColor=#006EAF;fontColor=#ffffff;" vertex="1" parent="6DYlb84gElAy-nNqO098-34">
          <mxGeometry x="120" width="40" height="40" as="geometry" />
        </mxCell>
        <mxCell id="6DYlb84gElAy-nNqO098-39" style="shape=partialRectangle;html=1;whiteSpace=wrap;connectable=0;fillColor=none;top=0;left=0;bottom=0;right=0;overflow=hidden;" vertex="1" parent="6DYlb84gElAy-nNqO098-34">
          <mxGeometry x="160" width="40" height="40" as="geometry" />
        </mxCell>
        <mxCell id="6DYlb84gElAy-nNqO098-40" style="shape=partialRectangle;html=1;whiteSpace=wrap;connectable=0;fillColor=#1ba1e2;top=0;left=0;bottom=0;right=0;overflow=hidden;strokeColor=#006EAF;fontColor=#ffffff;" vertex="1" parent="6DYlb84gElAy-nNqO098-34">
          <mxGeometry x="200" width="40" height="40" as="geometry" />
        </mxCell>
        <mxCell id="6DYlb84gElAy-nNqO098-41" style="shape=partialRectangle;html=1;whiteSpace=wrap;connectable=0;fillColor=#1ba1e2;top=0;left=0;bottom=0;right=0;overflow=hidden;strokeColor=#006EAF;fontColor=#ffffff;" vertex="1" parent="6DYlb84gElAy-nNqO098-34">
          <mxGeometry x="240" width="40" height="40" as="geometry" />
        </mxCell>
        <mxCell id="6DYlb84gElAy-nNqO098-42" style="shape=partialRectangle;html=1;whiteSpace=wrap;collapsible=0;dropTarget=0;pointerEvents=0;fillColor=none;top=0;left=0;bottom=0;right=0;points=[[0,0.5],[1,0.5]];portConstraint=eastwest;" vertex="1" parent="6DYlb84gElAy-nNqO098-1">
          <mxGeometry y="200" width="280" height="40" as="geometry" />
        </mxCell>
        <mxCell id="6DYlb84gElAy-nNqO098-43" style="shape=partialRectangle;html=1;whiteSpace=wrap;connectable=0;fillColor=#1ba1e2;top=0;left=0;bottom=0;right=0;overflow=hidden;strokeColor=#006EAF;fontColor=#ffffff;" vertex="1" parent="6DYlb84gElAy-nNqO098-42">
          <mxGeometry width="40" height="40" as="geometry" />
        </mxCell>
        <mxCell id="6DYlb84gElAy-nNqO098-44" style="shape=partialRectangle;html=1;whiteSpace=wrap;connectable=0;fillColor=none;top=0;left=0;bottom=0;right=0;overflow=hidden;" vertex="1" parent="6DYlb84gElAy-nNqO098-42">
          <mxGeometry x="40" width="40" height="40" as="geometry" />
        </mxCell>
        <mxCell id="6DYlb84gElAy-nNqO098-45" style="shape=partialRectangle;html=1;whiteSpace=wrap;connectable=0;top=0;left=0;bottom=0;right=0;overflow=hidden;" vertex="1" parent="6DYlb84gElAy-nNqO098-42">
          <mxGeometry x="80" width="40" height="40" as="geometry" />
        </mxCell>
        <mxCell id="6DYlb84gElAy-nNqO098-46" style="shape=partialRectangle;html=1;whiteSpace=wrap;connectable=0;top=0;left=0;bottom=0;right=0;overflow=hidden;" vertex="1" parent="6DYlb84gElAy-nNqO098-42">
          <mxGeometry x="120" width="40" height="40" as="geometry" />
        </mxCell>
        <mxCell id="6DYlb84gElAy-nNqO098-47" style="shape=partialRectangle;html=1;whiteSpace=wrap;connectable=0;top=0;left=0;bottom=0;right=0;overflow=hidden;" vertex="1" parent="6DYlb84gElAy-nNqO098-42">
          <mxGeometry x="160" width="40" height="40" as="geometry" />
        </mxCell>
        <mxCell id="6DYlb84gElAy-nNqO098-48" style="shape=partialRectangle;html=1;whiteSpace=wrap;connectable=0;top=0;left=0;bottom=0;right=0;overflow=hidden;" vertex="1" parent="6DYlb84gElAy-nNqO098-42">
          <mxGeometry x="200" width="40" height="40" as="geometry" />
        </mxCell>
        <mxCell id="6DYlb84gElAy-nNqO098-49" style="shape=partialRectangle;html=1;whiteSpace=wrap;connectable=0;fillColor=#1ba1e2;top=0;left=0;bottom=0;right=0;overflow=hidden;strokeColor=#006EAF;fontColor=#ffffff;" vertex="1" parent="6DYlb84gElAy-nNqO098-42">
          <mxGeometry x="240" width="40" height="40" as="geometry" />
        </mxCell>
        <mxCell id="6DYlb84gElAy-nNqO098-50" style="shape=partialRectangle;html=1;whiteSpace=wrap;collapsible=0;dropTarget=0;pointerEvents=0;fillColor=none;top=0;left=0;bottom=0;right=0;points=[[0,0.5],[1,0.5]];portConstraint=eastwest;" vertex="1" parent="6DYlb84gElAy-nNqO098-1">
          <mxGeometry y="240" width="280" height="40" as="geometry" />
        </mxCell>
        <mxCell id="6DYlb84gElAy-nNqO098-51" style="shape=partialRectangle;html=1;whiteSpace=wrap;connectable=0;fillColor=#1ba1e2;top=0;left=0;bottom=0;right=0;overflow=hidden;strokeColor=#006EAF;fontColor=#ffffff;" vertex="1" parent="6DYlb84gElAy-nNqO098-50">
          <mxGeometry width="40" height="40" as="geometry" />
        </mxCell>
        <mxCell id="6DYlb84gElAy-nNqO098-52" style="shape=partialRectangle;html=1;whiteSpace=wrap;connectable=0;fillColor=#1ba1e2;top=0;left=0;bottom=0;right=0;overflow=hidden;strokeColor=#006EAF;fontColor=#ffffff;" vertex="1" parent="6DYlb84gElAy-nNqO098-50">
          <mxGeometry x="40" width="40" height="40" as="geometry" />
        </mxCell>
        <mxCell id="6DYlb84gElAy-nNqO098-53" style="shape=partialRectangle;html=1;whiteSpace=wrap;connectable=0;fillColor=#1ba1e2;top=0;left=0;bottom=0;right=0;overflow=hidden;strokeColor=#006EAF;fontColor=#ffffff;" vertex="1" parent="6DYlb84gElAy-nNqO098-50">
          <mxGeometry x="80" width="40" height="40" as="geometry" />
        </mxCell>
        <mxCell id="6DYlb84gElAy-nNqO098-54" style="shape=partialRectangle;html=1;whiteSpace=wrap;connectable=0;fillColor=#1ba1e2;top=0;left=0;bottom=0;right=0;overflow=hidden;strokeColor=#006EAF;fontColor=#ffffff;" vertex="1" parent="6DYlb84gElAy-nNqO098-50">
          <mxGeometry x="120" width="40" height="40" as="geometry" />
        </mxCell>
        <mxCell id="6DYlb84gElAy-nNqO098-55" style="shape=partialRectangle;html=1;whiteSpace=wrap;connectable=0;fillColor=#1ba1e2;top=0;left=0;bottom=0;right=0;overflow=hidden;strokeColor=#006EAF;fontColor=#ffffff;" vertex="1" parent="6DYlb84gElAy-nNqO098-50">
          <mxGeometry x="160" width="40" height="40" as="geometry" />
        </mxCell>
        <mxCell id="6DYlb84gElAy-nNqO098-56" style="shape=partialRectangle;html=1;whiteSpace=wrap;connectable=0;fillColor=#1ba1e2;top=0;left=0;bottom=0;right=0;overflow=hidden;strokeColor=#006EAF;fontColor=#ffffff;" vertex="1" parent="6DYlb84gElAy-nNqO098-50">
          <mxGeometry x="200" width="40" height="40" as="geometry" />
        </mxCell>
        <mxCell id="6DYlb84gElAy-nNqO098-57" style="shape=partialRectangle;html=1;whiteSpace=wrap;connectable=0;fillColor=#1ba1e2;top=0;left=0;bottom=0;right=0;overflow=hidden;strokeColor=#006EAF;fontColor=#ffffff;" vertex="1" parent="6DYlb84gElAy-nNqO098-50">
          <mxGeometry x="240" width="40" height="40" as="geometry" />
        </mxCell>
        <mxCell id="6DYlb84gElAy-nNqO098-58" value="0" style="text;html=1;strokeColor=none;fillColor=none;align=center;verticalAlign=middle;whiteSpace=wrap;rounded=0;" vertex="1" parent="1">
          <mxGeometry x="300" y="490" width="40" height="20" as="geometry" />
        </mxCell>
        <mxCell id="6DYlb84gElAy-nNqO098-59" value="1" style="text;html=1;strokeColor=none;fillColor=none;align=center;verticalAlign=middle;whiteSpace=wrap;rounded=0;" vertex="1" parent="1">
          <mxGeometry x="300" y="530" width="40" height="20" as="geometry" />
        </mxCell>
        <mxCell id="6DYlb84gElAy-nNqO098-60" value="2" style="text;html=1;strokeColor=none;fillColor=none;align=center;verticalAlign=middle;whiteSpace=wrap;rounded=0;" vertex="1" parent="1">
          <mxGeometry x="300" y="570" width="40" height="20" as="geometry" />
        </mxCell>
        <mxCell id="6DYlb84gElAy-nNqO098-61" value="3" style="text;html=1;strokeColor=none;fillColor=none;align=center;verticalAlign=middle;whiteSpace=wrap;rounded=0;" vertex="1" parent="1">
          <mxGeometry x="300" y="610" width="40" height="20" as="geometry" />
        </mxCell>
        <mxCell id="6DYlb84gElAy-nNqO098-62" value="4" style="text;html=1;strokeColor=none;fillColor=none;align=center;verticalAlign=middle;whiteSpace=wrap;rounded=0;" vertex="1" parent="1">
          <mxGeometry x="300" y="650" width="40" height="20" as="geometry" />
        </mxCell>
        <mxCell id="6DYlb84gElAy-nNqO098-63" value="5" style="text;html=1;strokeColor=none;fillColor=none;align=center;verticalAlign=middle;whiteSpace=wrap;rounded=0;" vertex="1" parent="1">
          <mxGeometry x="300" y="690" width="40" height="20" as="geometry" />
        </mxCell>
        <mxCell id="6DYlb84gElAy-nNqO098-64" value="6" style="text;html=1;strokeColor=none;fillColor=none;align=center;verticalAlign=middle;whiteSpace=wrap;rounded=0;" vertex="1" parent="1">
          <mxGeometry x="300" y="730" width="40" height="20" as="geometry" />
        </mxCell>
        <mxCell id="6DYlb84gElAy-nNqO098-65" value="0" style="text;html=1;strokeColor=none;fillColor=none;align=center;verticalAlign=middle;whiteSpace=wrap;rounded=0;" vertex="1" parent="1">
          <mxGeometry x="340" y="450" width="40" height="20" as="geometry" />
        </mxCell>
        <mxCell id="6DYlb84gElAy-nNqO098-66" value="1" style="text;html=1;strokeColor=none;fillColor=none;align=center;verticalAlign=middle;whiteSpace=wrap;rounded=0;" vertex="1" parent="1">
          <mxGeometry x="380" y="450" width="40" height="20" as="geometry" />
        </mxCell>
        <mxCell id="6DYlb84gElAy-nNqO098-67" value="2" style="text;html=1;strokeColor=none;fillColor=none;align=center;verticalAlign=middle;whiteSpace=wrap;rounded=0;" vertex="1" parent="1">
          <mxGeometry x="420" y="450" width="40" height="20" as="geometry" />
        </mxCell>
        <mxCell id="6DYlb84gElAy-nNqO098-68" value="4" style="text;html=1;strokeColor=none;fillColor=none;align=center;verticalAlign=middle;whiteSpace=wrap;rounded=0;" vertex="1" parent="1">
          <mxGeometry x="500" y="450" width="40" height="20" as="geometry" />
        </mxCell>
        <mxCell id="6DYlb84gElAy-nNqO098-69" value="5" style="text;html=1;strokeColor=none;fillColor=none;align=center;verticalAlign=middle;whiteSpace=wrap;rounded=0;" vertex="1" parent="1">
          <mxGeometry x="540" y="450" width="40" height="20" as="geometry" />
        </mxCell>
        <mxCell id="6DYlb84gElAy-nNqO098-70" value="6" style="text;html=1;strokeColor=none;fillColor=none;align=center;verticalAlign=middle;whiteSpace=wrap;rounded=0;" vertex="1" parent="1">
          <mxGeometry x="580" y="450" width="40" height="20" as="geometry" />
        </mxCell>
        <mxCell id="6DYlb84gElAy-nNqO098-71" value="1为走过的" style="text;html=1;strokeColor=#6F0000;fillColor=#a20025;align=center;verticalAlign=middle;whiteSpace=wrap;rounded=0;strokeWidth=1;fontSize=17;fontColor=#ffffff;" vertex="1" parent="1">
          <mxGeometry x="370" y="350" width="140" height="20" as="geometry" />
        </mxCell>
        <mxCell id="6DYlb84gElAy-nNqO098-72" value="Y" style="text;html=1;strokeColor=#A50040;fillColor=#d80073;align=center;verticalAlign=middle;whiteSpace=wrap;rounded=0;fontSize=16;fontColor=#ffffff;" vertex="1" parent="1">
          <mxGeometry x="450" y="410" width="40" height="20" as="geometry" />
        </mxCell>
        <mxCell id="6DYlb84gElAy-nNqO098-73" value="2为墙壁" style="text;html=1;strokeColor=#006EAF;fillColor=#1ba1e2;align=center;verticalAlign=middle;whiteSpace=wrap;rounded=0;strokeWidth=1;fontSize=17;fontColor=#ffffff;" vertex="1" parent="1">
          <mxGeometry x="370" y="380" width="140" height="20" as="geometry" />
        </mxCell>
        <mxCell id="6DYlb84gElAy-nNqO098-74" value="" style="ellipse;shape=cloud;whiteSpace=wrap;html=1;strokeWidth=1;fontSize=17;" vertex="1" parent="1">
          <mxGeometry x="380" y="525" width="40" height="30" as="geometry" />
        </mxCell>
        <mxCell id="6DYlb84gElAy-nNqO098-75" value="" style="rounded=0;whiteSpace=wrap;html=1;strokeColor=#005700;strokeWidth=1;fontSize=17;fillColor=#008a00;fontColor=#ffffff;" vertex="1" parent="1">
          <mxGeometry x="560" y="350" width="40" height="40" as="geometry" />
        </mxCell>
        <mxCell id="6DYlb84gElAy-nNqO098-76" value="" style="edgeStyle=orthogonalEdgeStyle;rounded=0;orthogonalLoop=1;jettySize=auto;html=1;fontSize=17;" edge="1" parent="1" source="6DYlb84gElAy-nNqO098-77" target="6DYlb84gElAy-nNqO098-75">
          <mxGeometry relative="1" as="geometry" />
        </mxCell>
        <mxCell id="6DYlb84gElAy-nNqO098-77" value="终点" style="text;html=1;strokeColor=#006EAF;fillColor=#1ba1e2;align=center;verticalAlign=middle;whiteSpace=wrap;rounded=0;strokeWidth=1;fontSize=17;fontColor=#ffffff;" vertex="1" parent="1">
          <mxGeometry x="620" y="300" width="140" height="20" as="geometry" />
        </mxCell>
        <mxCell id="6DYlb84gElAy-nNqO098-78" value="X" style="text;html=1;strokeColor=#A50040;fillColor=#d80073;align=center;verticalAlign=middle;whiteSpace=wrap;rounded=0;fontSize=16;fontColor=#ffffff;" vertex="1" parent="1">
          <mxGeometry x="250" y="595" width="40" height="20" as="geometry" />
        </mxCell>
        <mxCell id="6DYlb84gElAy-nNqO098-79" value="3" style="text;html=1;strokeColor=none;fillColor=none;align=center;verticalAlign=middle;whiteSpace=wrap;rounded=0;" vertex="1" parent="1">
          <mxGeometry x="460" y="450" width="40" height="20" as="geometry" />
        </mxCell>
        <mxCell id="6DYlb84gElAy-nNqO098-80" value="0" style="text;html=1;strokeColor=none;fillColor=none;align=center;verticalAlign=middle;whiteSpace=wrap;rounded=0;" vertex="1" parent="1">
          <mxGeometry x="1460" y="1050" width="40" height="20" as="geometry" />
        </mxCell>
        <mxCell id="6DYlb84gElAy-nNqO098-81" value="1" style="text;html=1;strokeColor=none;fillColor=none;align=center;verticalAlign=middle;whiteSpace=wrap;rounded=0;" vertex="1" parent="1">
          <mxGeometry x="1460" y="1090" width="40" height="20" as="geometry" />
        </mxCell>
        <mxCell id="6DYlb84gElAy-nNqO098-82" value="2" style="text;html=1;strokeColor=none;fillColor=none;align=center;verticalAlign=middle;whiteSpace=wrap;rounded=0;" vertex="1" parent="1">
          <mxGeometry x="1460" y="1130" width="40" height="20" as="geometry" />
        </mxCell>
        <mxCell id="6DYlb84gElAy-nNqO098-83" value="3" style="text;html=1;strokeColor=none;fillColor=none;align=center;verticalAlign=middle;whiteSpace=wrap;rounded=0;" vertex="1" parent="1">
          <mxGeometry x="1460" y="1170" width="40" height="20" as="geometry" />
        </mxCell>
        <mxCell id="6DYlb84gElAy-nNqO098-84" value="0" style="text;html=1;strokeColor=none;fillColor=none;align=center;verticalAlign=middle;whiteSpace=wrap;rounded=0;" vertex="1" parent="1">
          <mxGeometry x="1500" y="1010" width="40" height="20" as="geometry" />
        </mxCell>
        <mxCell id="6DYlb84gElAy-nNqO098-85" value="1" style="text;html=1;strokeColor=none;fillColor=none;align=center;verticalAlign=middle;whiteSpace=wrap;rounded=0;" vertex="1" parent="1">
          <mxGeometry x="1540" y="1010" width="40" height="20" as="geometry" />
        </mxCell>
        <mxCell id="6DYlb84gElAy-nNqO098-86" value="2" style="text;html=1;strokeColor=none;fillColor=none;align=center;verticalAlign=middle;whiteSpace=wrap;rounded=0;" vertex="1" parent="1">
          <mxGeometry x="1580" y="1010" width="40" height="20" as="geometry" />
        </mxCell>
        <mxCell id="6DYlb84gElAy-nNqO098-87" value="4" style="text;html=1;strokeColor=none;fillColor=none;align=center;verticalAlign=middle;whiteSpace=wrap;rounded=0;" vertex="1" parent="1">
          <mxGeometry x="1660" y="1010" width="40" height="20" as="geometry" />
        </mxCell>
        <mxCell id="6DYlb84gElAy-nNqO098-88" value="1为猫" style="text;html=1;strokeColor=#006EAF;fillColor=#1ba1e2;align=center;verticalAlign=middle;whiteSpace=wrap;rounded=0;strokeWidth=1;fontSize=17;fontColor=#ffffff;" vertex="1" parent="1">
          <mxGeometry x="1530" y="910" width="140" height="20" as="geometry" />
        </mxCell>
        <mxCell id="6DYlb84gElAy-nNqO098-89" value="Y" style="text;html=1;strokeColor=#A50040;fillColor=#d80073;align=center;verticalAlign=middle;whiteSpace=wrap;rounded=0;fontSize=16;fontColor=#ffffff;" vertex="1" parent="1">
          <mxGeometry x="1580" y="980" width="40" height="20" as="geometry" />
        </mxCell>
        <mxCell id="6DYlb84gElAy-nNqO098-90" value="" style="rounded=0;whiteSpace=wrap;html=1;strokeColor=#005700;strokeWidth=1;fontSize=17;fillColor=#008a00;fontColor=#ffffff;" vertex="1" parent="1">
          <mxGeometry x="1720" y="910" width="40" height="40" as="geometry" />
        </mxCell>
        <mxCell id="6DYlb84gElAy-nNqO098-91" value="" style="edgeStyle=orthogonalEdgeStyle;rounded=0;orthogonalLoop=1;jettySize=auto;html=1;fontSize=17;" edge="1" parent="1" source="6DYlb84gElAy-nNqO098-92" target="6DYlb84gElAy-nNqO098-90">
          <mxGeometry relative="1" as="geometry" />
        </mxCell>
        <mxCell id="6DYlb84gElAy-nNqO098-92" value="终点" style="text;html=1;strokeColor=#006EAF;fillColor=#1ba1e2;align=center;verticalAlign=middle;whiteSpace=wrap;rounded=0;strokeWidth=1;fontSize=17;fontColor=#ffffff;" vertex="1" parent="1">
          <mxGeometry x="1780" y="860" width="140" height="20" as="geometry" />
        </mxCell>
        <mxCell id="6DYlb84gElAy-nNqO098-93" value="X" style="text;html=1;strokeColor=#A50040;fillColor=#d80073;align=center;verticalAlign=middle;whiteSpace=wrap;rounded=0;fontSize=16;fontColor=#ffffff;" vertex="1" parent="1">
          <mxGeometry x="1410" y="1120" width="40" height="30" as="geometry" />
        </mxCell>
        <mxCell id="6DYlb84gElAy-nNqO098-94" value="3" style="text;html=1;strokeColor=none;fillColor=none;align=center;verticalAlign=middle;whiteSpace=wrap;rounded=0;" vertex="1" parent="1">
          <mxGeometry x="1620" y="1010" width="40" height="20" as="geometry" />
        </mxCell>
        <mxCell id="6DYlb84gElAy-nNqO098-95" value="" style="shape=table;html=1;whiteSpace=wrap;startSize=0;container=1;collapsible=0;childLayout=tableLayout;strokeColor=#f0f0f0;strokeWidth=1;fillColor=#2A2A2A;fontSize=16;" vertex="1" parent="1">
          <mxGeometry x="1500" y="1040" width="200" height="160" as="geometry" />
        </mxCell>
        <mxCell id="6DYlb84gElAy-nNqO098-96" style="shape=partialRectangle;html=1;whiteSpace=wrap;collapsible=0;dropTarget=0;pointerEvents=0;fillColor=none;top=0;left=0;bottom=0;right=0;points=[[0,0.5],[1,0.5]];portConstraint=eastwest;" vertex="1" parent="6DYlb84gElAy-nNqO098-95">
          <mxGeometry width="200" height="40" as="geometry" />
        </mxCell>
        <mxCell id="6DYlb84gElAy-nNqO098-97" style="shape=partialRectangle;html=1;whiteSpace=wrap;connectable=0;fillColor=none;top=0;left=0;bottom=0;right=0;overflow=hidden;" vertex="1" parent="6DYlb84gElAy-nNqO098-96">
          <mxGeometry width="40" height="40" as="geometry" />
        </mxCell>
        <mxCell id="6DYlb84gElAy-nNqO098-98" style="shape=partialRectangle;html=1;whiteSpace=wrap;connectable=0;top=0;left=0;bottom=0;right=0;overflow=hidden;" vertex="1" parent="6DYlb84gElAy-nNqO098-96">
          <mxGeometry x="40" width="40" height="40" as="geometry" />
        </mxCell>
        <mxCell id="6DYlb84gElAy-nNqO098-99" style="shape=partialRectangle;html=1;whiteSpace=wrap;connectable=0;fillColor=#1ba1e2;top=0;left=0;bottom=0;right=0;overflow=hidden;strokeColor=#006EAF;fontColor=#ffffff;" vertex="1" parent="6DYlb84gElAy-nNqO098-96">
          <mxGeometry x="80" width="40" height="40" as="geometry" />
        </mxCell>
        <mxCell id="6DYlb84gElAy-nNqO098-100" style="shape=partialRectangle;html=1;whiteSpace=wrap;connectable=0;fillColor=none;top=0;left=0;bottom=0;right=0;overflow=hidden;" vertex="1" parent="6DYlb84gElAy-nNqO098-96">
          <mxGeometry x="120" width="40" height="40" as="geometry" />
        </mxCell>
        <mxCell id="6DYlb84gElAy-nNqO098-101" style="shape=partialRectangle;html=1;whiteSpace=wrap;connectable=0;fillColor=none;top=0;left=0;bottom=0;right=0;overflow=hidden;" vertex="1" parent="6DYlb84gElAy-nNqO098-96">
          <mxGeometry x="160" width="40" height="40" as="geometry" />
        </mxCell>
        <mxCell id="6DYlb84gElAy-nNqO098-102" style="shape=partialRectangle;html=1;whiteSpace=wrap;collapsible=0;dropTarget=0;pointerEvents=0;fillColor=none;top=0;left=0;bottom=0;right=0;points=[[0,0.5],[1,0.5]];portConstraint=eastwest;" vertex="1" parent="6DYlb84gElAy-nNqO098-95">
          <mxGeometry y="40" width="200" height="40" as="geometry" />
        </mxCell>
        <mxCell id="6DYlb84gElAy-nNqO098-103" style="shape=partialRectangle;html=1;whiteSpace=wrap;connectable=0;fillColor=none;top=0;left=0;bottom=0;right=0;overflow=hidden;" vertex="1" parent="6DYlb84gElAy-nNqO098-102">
          <mxGeometry width="40" height="40" as="geometry" />
        </mxCell>
        <mxCell id="6DYlb84gElAy-nNqO098-104" style="shape=partialRectangle;html=1;whiteSpace=wrap;connectable=0;top=0;left=0;bottom=0;right=0;overflow=hidden;" vertex="1" parent="6DYlb84gElAy-nNqO098-102">
          <mxGeometry x="40" width="40" height="40" as="geometry" />
        </mxCell>
        <mxCell id="6DYlb84gElAy-nNqO098-105" style="shape=partialRectangle;html=1;whiteSpace=wrap;connectable=0;top=0;left=0;bottom=0;right=0;overflow=hidden;" vertex="1" parent="6DYlb84gElAy-nNqO098-102">
          <mxGeometry x="80" width="40" height="40" as="geometry" />
        </mxCell>
        <mxCell id="6DYlb84gElAy-nNqO098-106" style="shape=partialRectangle;html=1;whiteSpace=wrap;connectable=0;top=0;left=0;bottom=0;right=0;overflow=hidden;" vertex="1" parent="6DYlb84gElAy-nNqO098-102">
          <mxGeometry x="120" width="40" height="40" as="geometry" />
        </mxCell>
        <mxCell id="6DYlb84gElAy-nNqO098-107" style="shape=partialRectangle;html=1;whiteSpace=wrap;connectable=0;top=0;left=0;bottom=0;right=0;overflow=hidden;" vertex="1" parent="6DYlb84gElAy-nNqO098-102">
          <mxGeometry x="160" width="40" height="40" as="geometry" />
        </mxCell>
        <mxCell id="6DYlb84gElAy-nNqO098-108" value="" style="shape=partialRectangle;html=1;whiteSpace=wrap;collapsible=0;dropTarget=0;pointerEvents=0;fillColor=none;top=0;left=0;bottom=0;right=0;points=[[0,0.5],[1,0.5]];portConstraint=eastwest;" vertex="1" parent="6DYlb84gElAy-nNqO098-95">
          <mxGeometry y="80" width="200" height="40" as="geometry" />
        </mxCell>
        <mxCell id="6DYlb84gElAy-nNqO098-109" value="" style="shape=partialRectangle;html=1;whiteSpace=wrap;connectable=0;fillColor=none;top=0;left=0;bottom=0;right=0;overflow=hidden;" vertex="1" parent="6DYlb84gElAy-nNqO098-108">
          <mxGeometry width="40" height="40" as="geometry" />
        </mxCell>
        <mxCell id="6DYlb84gElAy-nNqO098-110" value="" style="shape=partialRectangle;html=1;whiteSpace=wrap;connectable=0;fillColor=#1ba1e2;top=0;left=0;bottom=0;right=0;overflow=hidden;strokeColor=#006EAF;fontColor=#ffffff;" vertex="1" parent="6DYlb84gElAy-nNqO098-108">
          <mxGeometry x="40" width="40" height="40" as="geometry" />
        </mxCell>
        <mxCell id="6DYlb84gElAy-nNqO098-111" style="shape=partialRectangle;html=1;whiteSpace=wrap;connectable=0;fillColor=#1ba1e2;top=0;left=0;bottom=0;right=0;overflow=hidden;strokeColor=#006EAF;fontColor=#ffffff;" vertex="1" parent="6DYlb84gElAy-nNqO098-108">
          <mxGeometry x="80" width="40" height="40" as="geometry" />
        </mxCell>
        <mxCell id="6DYlb84gElAy-nNqO098-112" style="shape=partialRectangle;html=1;whiteSpace=wrap;connectable=0;fillColor=#1ba1e2;top=0;left=0;bottom=0;right=0;overflow=hidden;strokeColor=#006EAF;fontColor=#ffffff;" vertex="1" parent="6DYlb84gElAy-nNqO098-108">
          <mxGeometry x="120" width="40" height="40" as="geometry" />
        </mxCell>
        <mxCell id="6DYlb84gElAy-nNqO098-113" style="shape=partialRectangle;html=1;whiteSpace=wrap;connectable=0;top=0;left=0;bottom=0;right=0;overflow=hidden;" vertex="1" parent="6DYlb84gElAy-nNqO098-108">
          <mxGeometry x="160" width="40" height="40" as="geometry" />
        </mxCell>
        <mxCell id="6DYlb84gElAy-nNqO098-114" value="" style="shape=partialRectangle;html=1;whiteSpace=wrap;collapsible=0;dropTarget=0;pointerEvents=0;fillColor=none;top=0;left=0;bottom=0;right=0;points=[[0,0.5],[1,0.5]];portConstraint=eastwest;" vertex="1" parent="6DYlb84gElAy-nNqO098-95">
          <mxGeometry y="120" width="200" height="40" as="geometry" />
        </mxCell>
        <mxCell id="6DYlb84gElAy-nNqO098-115" value="" style="shape=partialRectangle;html=1;whiteSpace=wrap;connectable=0;fillColor=none;top=0;left=0;bottom=0;right=0;overflow=hidden;" vertex="1" parent="6DYlb84gElAy-nNqO098-114">
          <mxGeometry width="40" height="40" as="geometry" />
        </mxCell>
        <mxCell id="6DYlb84gElAy-nNqO098-116" value="" style="shape=partialRectangle;html=1;whiteSpace=wrap;connectable=0;fillColor=none;top=0;left=0;bottom=0;right=0;overflow=hidden;" vertex="1" parent="6DYlb84gElAy-nNqO098-114">
          <mxGeometry x="40" width="40" height="40" as="geometry" />
        </mxCell>
        <mxCell id="6DYlb84gElAy-nNqO098-117" style="shape=partialRectangle;html=1;whiteSpace=wrap;connectable=0;fillColor=none;top=0;left=0;bottom=0;right=0;overflow=hidden;" vertex="1" parent="6DYlb84gElAy-nNqO098-114">
          <mxGeometry x="80" width="40" height="40" as="geometry" />
        </mxCell>
        <mxCell id="6DYlb84gElAy-nNqO098-118" style="shape=partialRectangle;html=1;whiteSpace=wrap;connectable=0;fillColor=#008a00;top=0;left=0;bottom=0;right=0;overflow=hidden;strokeColor=#005700;fontColor=#ffffff;" vertex="1" parent="6DYlb84gElAy-nNqO098-114">
          <mxGeometry x="120" width="40" height="40" as="geometry" />
        </mxCell>
        <mxCell id="6DYlb84gElAy-nNqO098-119" style="shape=partialRectangle;html=1;whiteSpace=wrap;connectable=0;top=0;left=0;bottom=0;right=0;overflow=hidden;" vertex="1" parent="6DYlb84gElAy-nNqO098-114">
          <mxGeometry x="160" width="40" height="40" as="geometry" />
        </mxCell>
        <mxCell id="6DYlb84gElAy-nNqO098-120" value="" style="ellipse;shape=cloud;whiteSpace=wrap;html=1;strokeWidth=1;fontSize=17;fillColor=#647687;strokeColor=#314354;fontColor=#ffffff;" vertex="1" parent="1">
          <mxGeometry x="1500" y="1042.5" width="40" height="35" as="geometry" />
        </mxCell>
        <mxCell id="6DYlb84gElAy-nNqO098-121" value="1, 0" style="text;html=1;strokeColor=#A50040;fillColor=#d80073;align=center;verticalAlign=middle;whiteSpace=wrap;rounded=0;fontSize=16;fontColor=#ffffff;" vertex="1" parent="1">
          <mxGeometry x="1510" y="1270" width="80" height="20" as="geometry" />
        </mxCell>
        <mxCell id="6DYlb84gElAy-nNqO098-122" value="0" style="text;html=1;strokeColor=none;fillColor=none;align=center;verticalAlign=middle;whiteSpace=wrap;rounded=0;" vertex="1" parent="1">
          <mxGeometry x="1790" y="1250" width="40" height="20" as="geometry" />
        </mxCell>
        <mxCell id="6DYlb84gElAy-nNqO098-123" value="1" style="text;html=1;strokeColor=none;fillColor=none;align=center;verticalAlign=middle;whiteSpace=wrap;rounded=0;" vertex="1" parent="1">
          <mxGeometry x="1790" y="1290" width="40" height="20" as="geometry" />
        </mxCell>
        <mxCell id="6DYlb84gElAy-nNqO098-124" value="2" style="text;html=1;strokeColor=none;fillColor=none;align=center;verticalAlign=middle;whiteSpace=wrap;rounded=0;" vertex="1" parent="1">
          <mxGeometry x="1790" y="1330" width="40" height="20" as="geometry" />
        </mxCell>
        <mxCell id="6DYlb84gElAy-nNqO098-125" value="3" style="text;html=1;strokeColor=none;fillColor=none;align=center;verticalAlign=middle;whiteSpace=wrap;rounded=0;" vertex="1" parent="1">
          <mxGeometry x="1790" y="1370" width="40" height="20" as="geometry" />
        </mxCell>
        <mxCell id="6DYlb84gElAy-nNqO098-126" value="0" style="text;html=1;strokeColor=none;fillColor=none;align=center;verticalAlign=middle;whiteSpace=wrap;rounded=0;" vertex="1" parent="1">
          <mxGeometry x="1830" y="1210" width="40" height="20" as="geometry" />
        </mxCell>
        <mxCell id="6DYlb84gElAy-nNqO098-127" value="1" style="text;html=1;strokeColor=none;fillColor=none;align=center;verticalAlign=middle;whiteSpace=wrap;rounded=0;" vertex="1" parent="1">
          <mxGeometry x="1870" y="1210" width="40" height="20" as="geometry" />
        </mxCell>
        <mxCell id="6DYlb84gElAy-nNqO098-128" value="2" style="text;html=1;strokeColor=none;fillColor=none;align=center;verticalAlign=middle;whiteSpace=wrap;rounded=0;" vertex="1" parent="1">
          <mxGeometry x="1910" y="1210" width="40" height="20" as="geometry" />
        </mxCell>
        <mxCell id="6DYlb84gElAy-nNqO098-129" value="4" style="text;html=1;strokeColor=none;fillColor=none;align=center;verticalAlign=middle;whiteSpace=wrap;rounded=0;" vertex="1" parent="1">
          <mxGeometry x="1990" y="1210" width="40" height="20" as="geometry" />
        </mxCell>
        <mxCell id="6DYlb84gElAy-nNqO098-130" value="Y" style="text;html=1;strokeColor=#A50040;fillColor=#d80073;align=center;verticalAlign=middle;whiteSpace=wrap;rounded=0;fontSize=16;fontColor=#ffffff;" vertex="1" parent="1">
          <mxGeometry x="1910" y="1180" width="40" height="20" as="geometry" />
        </mxCell>
        <mxCell id="6DYlb84gElAy-nNqO098-131" value="X" style="text;html=1;strokeColor=#A50040;fillColor=#d80073;align=center;verticalAlign=middle;whiteSpace=wrap;rounded=0;fontSize=16;fontColor=#ffffff;" vertex="1" parent="1">
          <mxGeometry x="1740" y="1320" width="40" height="30" as="geometry" />
        </mxCell>
        <mxCell id="6DYlb84gElAy-nNqO098-132" value="3" style="text;html=1;strokeColor=none;fillColor=none;align=center;verticalAlign=middle;whiteSpace=wrap;rounded=0;" vertex="1" parent="1">
          <mxGeometry x="1950" y="1210" width="40" height="20" as="geometry" />
        </mxCell>
        <mxCell id="6DYlb84gElAy-nNqO098-133" value="" style="ellipse;shape=cloud;whiteSpace=wrap;html=1;strokeWidth=1;fontSize=17;fillColor=#647687;strokeColor=#314354;fontColor=#ffffff;" vertex="1" parent="1">
          <mxGeometry x="1830" y="1242.5" width="40" height="35" as="geometry" />
        </mxCell>
        <mxCell id="6DYlb84gElAy-nNqO098-134" value="1, 0" style="text;html=1;strokeColor=#A50040;fillColor=#d80073;align=center;verticalAlign=middle;whiteSpace=wrap;rounded=0;fontSize=16;fontColor=#ffffff;" vertex="1" parent="1">
          <mxGeometry x="1900" y="1520" width="80" height="20" as="geometry" />
        </mxCell>
        <mxCell id="6DYlb84gElAy-nNqO098-135" value="4" style="text;html=1;strokeColor=none;fillColor=none;align=center;verticalAlign=middle;whiteSpace=wrap;rounded=0;" vertex="1" parent="1">
          <mxGeometry x="1790" y="1410" width="40" height="20" as="geometry" />
        </mxCell>
        <mxCell id="6DYlb84gElAy-nNqO098-136" value="5" style="text;html=1;strokeColor=none;fillColor=none;align=center;verticalAlign=middle;whiteSpace=wrap;rounded=0;" vertex="1" parent="1">
          <mxGeometry x="2030" y="1210" width="40" height="20" as="geometry" />
        </mxCell>
        <mxCell id="6DYlb84gElAy-nNqO098-137" value="6" style="text;html=1;strokeColor=none;fillColor=none;align=center;verticalAlign=middle;whiteSpace=wrap;rounded=0;" vertex="1" parent="1">
          <mxGeometry x="2070" y="1210" width="40" height="20" as="geometry" />
        </mxCell>
        <mxCell id="6DYlb84gElAy-nNqO098-138" value="5" style="text;html=1;strokeColor=none;fillColor=none;align=center;verticalAlign=middle;whiteSpace=wrap;rounded=0;" vertex="1" parent="1">
          <mxGeometry x="1790" y="1450" width="40" height="20" as="geometry" />
        </mxCell>
        <mxCell id="6DYlb84gElAy-nNqO098-139" value="" style="shape=table;html=1;whiteSpace=wrap;startSize=0;container=1;collapsible=0;childLayout=tableLayout;strokeColor=#f0f0f0;strokeWidth=1;fillColor=#2A2A2A;fontSize=16;" vertex="1" parent="1">
          <mxGeometry x="1830" y="1240" width="280" height="240" as="geometry" />
        </mxCell>
        <mxCell id="6DYlb84gElAy-nNqO098-140" style="shape=partialRectangle;html=1;whiteSpace=wrap;collapsible=0;dropTarget=0;pointerEvents=0;fillColor=none;top=0;left=0;bottom=0;right=0;points=[[0,0.5],[1,0.5]];portConstraint=eastwest;" vertex="1" parent="6DYlb84gElAy-nNqO098-139">
          <mxGeometry width="280" height="40" as="geometry" />
        </mxCell>
        <mxCell id="6DYlb84gElAy-nNqO098-141" style="shape=partialRectangle;html=1;whiteSpace=wrap;connectable=0;fillColor=#1ba1e2;top=0;left=0;bottom=0;right=0;overflow=hidden;strokeColor=#006EAF;fontColor=#ffffff;" vertex="1" parent="6DYlb84gElAy-nNqO098-140">
          <mxGeometry width="40" height="40" as="geometry" />
        </mxCell>
        <mxCell id="6DYlb84gElAy-nNqO098-142" style="shape=partialRectangle;html=1;whiteSpace=wrap;connectable=0;top=0;left=0;bottom=0;right=0;overflow=hidden;fillColor=#1ba1e2;strokeColor=#006EAF;fontColor=#ffffff;" vertex="1" parent="6DYlb84gElAy-nNqO098-140">
          <mxGeometry x="40" width="40" height="40" as="geometry" />
        </mxCell>
        <mxCell id="6DYlb84gElAy-nNqO098-143" style="shape=partialRectangle;html=1;whiteSpace=wrap;connectable=0;fillColor=#1ba1e2;top=0;left=0;bottom=0;right=0;overflow=hidden;strokeColor=#006EAF;fontColor=#ffffff;" vertex="1" parent="6DYlb84gElAy-nNqO098-140">
          <mxGeometry x="80" width="40" height="40" as="geometry" />
        </mxCell>
        <mxCell id="6DYlb84gElAy-nNqO098-144" style="shape=partialRectangle;html=1;whiteSpace=wrap;connectable=0;fillColor=#1ba1e2;top=0;left=0;bottom=0;right=0;overflow=hidden;strokeColor=#006EAF;fontColor=#ffffff;" vertex="1" parent="6DYlb84gElAy-nNqO098-140">
          <mxGeometry x="120" width="40" height="40" as="geometry" />
        </mxCell>
        <mxCell id="6DYlb84gElAy-nNqO098-145" style="shape=partialRectangle;html=1;whiteSpace=wrap;connectable=0;fillColor=#1ba1e2;top=0;left=0;bottom=0;right=0;overflow=hidden;strokeColor=#006EAF;fontColor=#ffffff;" vertex="1" parent="6DYlb84gElAy-nNqO098-140">
          <mxGeometry x="160" width="40" height="40" as="geometry" />
        </mxCell>
        <mxCell id="6DYlb84gElAy-nNqO098-146" style="shape=partialRectangle;html=1;whiteSpace=wrap;connectable=0;fillColor=#1ba1e2;top=0;left=0;bottom=0;right=0;overflow=hidden;strokeColor=#006EAF;fontColor=#ffffff;" vertex="1" parent="6DYlb84gElAy-nNqO098-140">
          <mxGeometry x="200" width="40" height="40" as="geometry" />
        </mxCell>
        <mxCell id="6DYlb84gElAy-nNqO098-147" style="shape=partialRectangle;html=1;whiteSpace=wrap;connectable=0;fillColor=#1ba1e2;top=0;left=0;bottom=0;right=0;overflow=hidden;strokeColor=#006EAF;fontColor=#ffffff;" vertex="1" parent="6DYlb84gElAy-nNqO098-140">
          <mxGeometry x="240" width="40" height="40" as="geometry" />
        </mxCell>
        <mxCell id="6DYlb84gElAy-nNqO098-148" style="shape=partialRectangle;html=1;whiteSpace=wrap;collapsible=0;dropTarget=0;pointerEvents=0;fillColor=none;top=0;left=0;bottom=0;right=0;points=[[0,0.5],[1,0.5]];portConstraint=eastwest;" vertex="1" parent="6DYlb84gElAy-nNqO098-139">
          <mxGeometry y="40" width="280" height="40" as="geometry" />
        </mxCell>
        <mxCell id="6DYlb84gElAy-nNqO098-149" style="shape=partialRectangle;html=1;whiteSpace=wrap;connectable=0;fillColor=#1ba1e2;top=0;left=0;bottom=0;right=0;overflow=hidden;strokeColor=#006EAF;fontColor=#ffffff;" vertex="1" parent="6DYlb84gElAy-nNqO098-148">
          <mxGeometry width="40" height="40" as="geometry" />
        </mxCell>
        <mxCell id="6DYlb84gElAy-nNqO098-150" style="shape=partialRectangle;html=1;whiteSpace=wrap;connectable=0;top=0;left=0;bottom=0;right=0;overflow=hidden;fillColor=#6a00ff;strokeColor=#3700CC;fontColor=#ffffff;" vertex="1" parent="6DYlb84gElAy-nNqO098-148">
          <mxGeometry x="40" width="40" height="40" as="geometry" />
        </mxCell>
        <mxCell id="6DYlb84gElAy-nNqO098-151" style="shape=partialRectangle;html=1;whiteSpace=wrap;connectable=0;top=0;left=0;bottom=0;right=0;overflow=hidden;" vertex="1" parent="6DYlb84gElAy-nNqO098-148">
          <mxGeometry x="80" width="40" height="40" as="geometry" />
        </mxCell>
        <mxCell id="6DYlb84gElAy-nNqO098-152" style="shape=partialRectangle;html=1;whiteSpace=wrap;connectable=0;top=0;left=0;bottom=0;right=0;overflow=hidden;fillColor=#1ba1e2;strokeColor=#006EAF;fontColor=#ffffff;" vertex="1" parent="6DYlb84gElAy-nNqO098-148">
          <mxGeometry x="120" width="40" height="40" as="geometry" />
        </mxCell>
        <mxCell id="6DYlb84gElAy-nNqO098-153" style="shape=partialRectangle;html=1;whiteSpace=wrap;connectable=0;top=0;left=0;bottom=0;right=0;overflow=hidden;" vertex="1" parent="6DYlb84gElAy-nNqO098-148">
          <mxGeometry x="160" width="40" height="40" as="geometry" />
        </mxCell>
        <mxCell id="6DYlb84gElAy-nNqO098-154" style="shape=partialRectangle;html=1;whiteSpace=wrap;connectable=0;top=0;left=0;bottom=0;right=0;overflow=hidden;" vertex="1" parent="6DYlb84gElAy-nNqO098-148">
          <mxGeometry x="200" width="40" height="40" as="geometry" />
        </mxCell>
        <mxCell id="6DYlb84gElAy-nNqO098-155" style="shape=partialRectangle;html=1;whiteSpace=wrap;connectable=0;top=0;left=0;bottom=0;right=0;overflow=hidden;fillColor=#1ba1e2;strokeColor=#006EAF;fontColor=#ffffff;" vertex="1" parent="6DYlb84gElAy-nNqO098-148">
          <mxGeometry x="240" width="40" height="40" as="geometry" />
        </mxCell>
        <mxCell id="6DYlb84gElAy-nNqO098-156" value="" style="shape=partialRectangle;html=1;whiteSpace=wrap;collapsible=0;dropTarget=0;pointerEvents=0;fillColor=none;top=0;left=0;bottom=0;right=0;points=[[0,0.5],[1,0.5]];portConstraint=eastwest;" vertex="1" parent="6DYlb84gElAy-nNqO098-139">
          <mxGeometry y="80" width="280" height="40" as="geometry" />
        </mxCell>
        <mxCell id="6DYlb84gElAy-nNqO098-157" value="" style="shape=partialRectangle;html=1;whiteSpace=wrap;connectable=0;fillColor=#1ba1e2;top=0;left=0;bottom=0;right=0;overflow=hidden;strokeColor=#006EAF;fontColor=#ffffff;" vertex="1" parent="6DYlb84gElAy-nNqO098-156">
          <mxGeometry width="40" height="40" as="geometry" />
        </mxCell>
        <mxCell id="6DYlb84gElAy-nNqO098-158" value="" style="shape=partialRectangle;html=1;whiteSpace=wrap;connectable=0;top=0;left=0;bottom=0;right=0;overflow=hidden;" vertex="1" parent="6DYlb84gElAy-nNqO098-156">
          <mxGeometry x="40" width="40" height="40" as="geometry" />
        </mxCell>
        <mxCell id="6DYlb84gElAy-nNqO098-159" style="shape=partialRectangle;html=1;whiteSpace=wrap;connectable=0;top=0;left=0;bottom=0;right=0;overflow=hidden;" vertex="1" parent="6DYlb84gElAy-nNqO098-156">
          <mxGeometry x="80" width="40" height="40" as="geometry" />
        </mxCell>
        <mxCell id="6DYlb84gElAy-nNqO098-160" style="shape=partialRectangle;html=1;whiteSpace=wrap;connectable=0;top=0;left=0;bottom=0;right=0;overflow=hidden;" vertex="1" parent="6DYlb84gElAy-nNqO098-156">
          <mxGeometry x="120" width="40" height="40" as="geometry" />
        </mxCell>
        <mxCell id="6DYlb84gElAy-nNqO098-161" style="shape=partialRectangle;html=1;whiteSpace=wrap;connectable=0;top=0;left=0;bottom=0;right=0;overflow=hidden;" vertex="1" parent="6DYlb84gElAy-nNqO098-156">
          <mxGeometry x="160" width="40" height="40" as="geometry" />
        </mxCell>
        <mxCell id="6DYlb84gElAy-nNqO098-162" style="shape=partialRectangle;html=1;whiteSpace=wrap;connectable=0;top=0;left=0;bottom=0;right=0;overflow=hidden;" vertex="1" parent="6DYlb84gElAy-nNqO098-156">
          <mxGeometry x="200" width="40" height="40" as="geometry" />
        </mxCell>
        <mxCell id="6DYlb84gElAy-nNqO098-163" style="shape=partialRectangle;html=1;whiteSpace=wrap;connectable=0;top=0;left=0;bottom=0;right=0;overflow=hidden;fillColor=#1ba1e2;strokeColor=#006EAF;fontColor=#ffffff;" vertex="1" parent="6DYlb84gElAy-nNqO098-156">
          <mxGeometry x="240" width="40" height="40" as="geometry" />
        </mxCell>
        <mxCell id="6DYlb84gElAy-nNqO098-164" style="shape=partialRectangle;html=1;whiteSpace=wrap;collapsible=0;dropTarget=0;pointerEvents=0;fillColor=none;top=0;left=0;bottom=0;right=0;points=[[0,0.5],[1,0.5]];portConstraint=eastwest;" vertex="1" parent="6DYlb84gElAy-nNqO098-139">
          <mxGeometry y="120" width="280" height="40" as="geometry" />
        </mxCell>
        <mxCell id="6DYlb84gElAy-nNqO098-165" style="shape=partialRectangle;html=1;whiteSpace=wrap;connectable=0;fillColor=#1ba1e2;top=0;left=0;bottom=0;right=0;overflow=hidden;strokeColor=#006EAF;fontColor=#ffffff;" vertex="1" parent="6DYlb84gElAy-nNqO098-164">
          <mxGeometry width="40" height="40" as="geometry" />
        </mxCell>
        <mxCell id="6DYlb84gElAy-nNqO098-166" style="shape=partialRectangle;html=1;whiteSpace=wrap;connectable=0;top=0;left=0;bottom=0;right=0;overflow=hidden;" vertex="1" parent="6DYlb84gElAy-nNqO098-164">
          <mxGeometry x="40" width="40" height="40" as="geometry" />
        </mxCell>
        <mxCell id="6DYlb84gElAy-nNqO098-167" style="shape=partialRectangle;html=1;whiteSpace=wrap;connectable=0;top=0;left=0;bottom=0;right=0;overflow=hidden;fillColor=#1ba1e2;strokeColor=#006EAF;fontColor=#ffffff;" vertex="1" parent="6DYlb84gElAy-nNqO098-164">
          <mxGeometry x="80" width="40" height="40" as="geometry" />
        </mxCell>
        <mxCell id="6DYlb84gElAy-nNqO098-168" style="shape=partialRectangle;html=1;whiteSpace=wrap;connectable=0;top=0;left=0;bottom=0;right=0;overflow=hidden;fillColor=#1ba1e2;strokeColor=#006EAF;fontColor=#ffffff;" vertex="1" parent="6DYlb84gElAy-nNqO098-164">
          <mxGeometry x="120" width="40" height="40" as="geometry" />
        </mxCell>
        <mxCell id="6DYlb84gElAy-nNqO098-169" style="shape=partialRectangle;html=1;whiteSpace=wrap;connectable=0;top=0;left=0;bottom=0;right=0;overflow=hidden;fillColor=#1ba1e2;strokeColor=#006EAF;fontColor=#ffffff;" vertex="1" parent="6DYlb84gElAy-nNqO098-164">
          <mxGeometry x="160" width="40" height="40" as="geometry" />
        </mxCell>
        <mxCell id="6DYlb84gElAy-nNqO098-170" style="shape=partialRectangle;html=1;whiteSpace=wrap;connectable=0;top=0;left=0;bottom=0;right=0;overflow=hidden;" vertex="1" parent="6DYlb84gElAy-nNqO098-164">
          <mxGeometry x="200" width="40" height="40" as="geometry" />
        </mxCell>
        <mxCell id="6DYlb84gElAy-nNqO098-171" style="shape=partialRectangle;html=1;whiteSpace=wrap;connectable=0;top=0;left=0;bottom=0;right=0;overflow=hidden;fillColor=#1ba1e2;strokeColor=#006EAF;fontColor=#ffffff;" vertex="1" parent="6DYlb84gElAy-nNqO098-164">
          <mxGeometry x="240" width="40" height="40" as="geometry" />
        </mxCell>
        <mxCell id="6DYlb84gElAy-nNqO098-172" value="" style="shape=partialRectangle;html=1;whiteSpace=wrap;collapsible=0;dropTarget=0;pointerEvents=0;fillColor=none;top=0;left=0;bottom=0;right=0;points=[[0,0.5],[1,0.5]];portConstraint=eastwest;" vertex="1" parent="6DYlb84gElAy-nNqO098-139">
          <mxGeometry y="160" width="280" height="40" as="geometry" />
        </mxCell>
        <mxCell id="6DYlb84gElAy-nNqO098-173" value="" style="shape=partialRectangle;html=1;whiteSpace=wrap;connectable=0;fillColor=#1ba1e2;top=0;left=0;bottom=0;right=0;overflow=hidden;strokeColor=#006EAF;fontColor=#ffffff;" vertex="1" parent="6DYlb84gElAy-nNqO098-172">
          <mxGeometry width="40" height="40" as="geometry" />
        </mxCell>
        <mxCell id="6DYlb84gElAy-nNqO098-174" value="" style="shape=partialRectangle;html=1;whiteSpace=wrap;connectable=0;fillColor=none;top=0;left=0;bottom=0;right=0;overflow=hidden;" vertex="1" parent="6DYlb84gElAy-nNqO098-172">
          <mxGeometry x="40" width="40" height="40" as="geometry" />
        </mxCell>
        <mxCell id="6DYlb84gElAy-nNqO098-175" style="shape=partialRectangle;html=1;whiteSpace=wrap;connectable=0;top=0;left=0;bottom=0;right=0;overflow=hidden;" vertex="1" parent="6DYlb84gElAy-nNqO098-172">
          <mxGeometry x="80" width="40" height="40" as="geometry" />
        </mxCell>
        <mxCell id="6DYlb84gElAy-nNqO098-176" style="shape=partialRectangle;html=1;whiteSpace=wrap;connectable=0;top=0;left=0;bottom=0;right=0;overflow=hidden;" vertex="1" parent="6DYlb84gElAy-nNqO098-172">
          <mxGeometry x="120" width="40" height="40" as="geometry" />
        </mxCell>
        <mxCell id="6DYlb84gElAy-nNqO098-177" style="shape=partialRectangle;html=1;whiteSpace=wrap;connectable=0;top=0;left=0;bottom=0;right=0;overflow=hidden;" vertex="1" parent="6DYlb84gElAy-nNqO098-172">
          <mxGeometry x="160" width="40" height="40" as="geometry" />
        </mxCell>
        <mxCell id="6DYlb84gElAy-nNqO098-178" style="shape=partialRectangle;html=1;whiteSpace=wrap;connectable=0;top=0;left=0;bottom=0;right=0;overflow=hidden;fillColor=#008a00;strokeColor=#005700;fontColor=#ffffff;" vertex="1" parent="6DYlb84gElAy-nNqO098-172">
          <mxGeometry x="200" width="40" height="40" as="geometry" />
        </mxCell>
        <mxCell id="6DYlb84gElAy-nNqO098-179" style="shape=partialRectangle;html=1;whiteSpace=wrap;connectable=0;top=0;left=0;bottom=0;right=0;overflow=hidden;fillColor=#1ba1e2;strokeColor=#006EAF;fontColor=#ffffff;" vertex="1" parent="6DYlb84gElAy-nNqO098-172">
          <mxGeometry x="240" width="40" height="40" as="geometry" />
        </mxCell>
        <mxCell id="6DYlb84gElAy-nNqO098-180" style="shape=partialRectangle;html=1;whiteSpace=wrap;collapsible=0;dropTarget=0;pointerEvents=0;fillColor=none;top=0;left=0;bottom=0;right=0;points=[[0,0.5],[1,0.5]];portConstraint=eastwest;" vertex="1" parent="6DYlb84gElAy-nNqO098-139">
          <mxGeometry y="200" width="280" height="40" as="geometry" />
        </mxCell>
        <mxCell id="6DYlb84gElAy-nNqO098-181" style="shape=partialRectangle;html=1;whiteSpace=wrap;connectable=0;fillColor=#1ba1e2;top=0;left=0;bottom=0;right=0;overflow=hidden;strokeColor=#006EAF;fontColor=#ffffff;" vertex="1" parent="6DYlb84gElAy-nNqO098-180">
          <mxGeometry width="40" height="40" as="geometry" />
        </mxCell>
        <mxCell id="6DYlb84gElAy-nNqO098-182" style="shape=partialRectangle;html=1;whiteSpace=wrap;connectable=0;fillColor=#1ba1e2;top=0;left=0;bottom=0;right=0;overflow=hidden;strokeColor=#006EAF;fontColor=#ffffff;" vertex="1" parent="6DYlb84gElAy-nNqO098-180">
          <mxGeometry x="40" width="40" height="40" as="geometry" />
        </mxCell>
        <mxCell id="6DYlb84gElAy-nNqO098-183" style="shape=partialRectangle;html=1;whiteSpace=wrap;connectable=0;fillColor=#1ba1e2;top=0;left=0;bottom=0;right=0;overflow=hidden;strokeColor=#006EAF;fontColor=#ffffff;" vertex="1" parent="6DYlb84gElAy-nNqO098-180">
          <mxGeometry x="80" width="40" height="40" as="geometry" />
        </mxCell>
        <mxCell id="6DYlb84gElAy-nNqO098-184" style="shape=partialRectangle;html=1;whiteSpace=wrap;connectable=0;fillColor=#1ba1e2;top=0;left=0;bottom=0;right=0;overflow=hidden;strokeColor=#006EAF;fontColor=#ffffff;" vertex="1" parent="6DYlb84gElAy-nNqO098-180">
          <mxGeometry x="120" width="40" height="40" as="geometry" />
        </mxCell>
        <mxCell id="6DYlb84gElAy-nNqO098-185" style="shape=partialRectangle;html=1;whiteSpace=wrap;connectable=0;top=0;left=0;bottom=0;right=0;overflow=hidden;fillColor=#1ba1e2;strokeColor=#006EAF;fontColor=#ffffff;" vertex="1" parent="6DYlb84gElAy-nNqO098-180">
          <mxGeometry x="160" width="40" height="40" as="geometry" />
        </mxCell>
        <mxCell id="6DYlb84gElAy-nNqO098-186" style="shape=partialRectangle;html=1;whiteSpace=wrap;connectable=0;top=0;left=0;bottom=0;right=0;overflow=hidden;fillColor=#1ba1e2;strokeColor=#006EAF;fontColor=#ffffff;" vertex="1" parent="6DYlb84gElAy-nNqO098-180">
          <mxGeometry x="200" width="40" height="40" as="geometry" />
        </mxCell>
        <mxCell id="6DYlb84gElAy-nNqO098-187" style="shape=partialRectangle;html=1;whiteSpace=wrap;connectable=0;top=0;left=0;bottom=0;right=0;overflow=hidden;fillColor=#1ba1e2;strokeColor=#006EAF;fontColor=#ffffff;" vertex="1" parent="6DYlb84gElAy-nNqO098-180">
          <mxGeometry x="240" width="40" height="40" as="geometry" />
        </mxCell>
      </root>
    </mxGraphModel>
  </diagram>
</mxfile>
